<?xml version="1.0" encoding="UTF-8"?>
<svg version="1.1" xmlns="http://www.w3.org/2000/svg" width="347" height="354">
<path d="M0 0 C35.97 0 71.94 0 109 0 C110.92662683 5.13767154 112.58752172 9.81793108 113.95092773 15.06176758 C114.12446148 15.72424216 114.29799522 16.38671675 114.47678757 17.06926632 C115.04965828 19.26001566 115.61656748 21.45226264 116.18359375 23.64453125 C116.59538976 25.22303041 117.00761727 26.80141705 117.42024231 28.37969971 C118.30292227 31.75873529 119.18316352 35.13839237 120.06140137 38.51858521 C122.15989189 46.59479275 124.26963039 54.6680626 126.38015366 62.74113274 C126.86554444 64.59786092 127.35078552 66.45462824 127.83588028 68.31143379 C131.44705479 82.13090898 135.10448626 95.93743219 138.80078125 109.734375 C139.0327162 110.60063192 139.26465115 111.46688885 139.50361443 112.35939598 C141.73857028 120.70647456 143.9771767 129.05255017 146.22566509 137.39599419 C147.04906064 140.45447703 147.8692534 143.51381258 148.68869591 146.57335663 C149.06748614 147.98450698 149.44775038 149.39526266 149.8296299 150.80558014 C150.35139746 152.73274755 150.86771591 154.66138778 151.38378906 156.59008789 C151.673526 157.66561417 151.96326294 158.74114044 152.26177979 159.84925842 C153.0448859 163.19157411 153.51452437 166.60167059 154 170 C166.54 169.67 179.08 169.34 192 169 C193.1653125 164.56949219 194.330625 160.13898438 195.53125 155.57421875 C199.24571894 141.45293774 202.96222053 127.33219237 206.67980385 113.21173096 C209.82928902 101.24906962 212.97695527 89.28593209 216.12252235 77.32223988 C218.33282879 68.9161577 220.54481762 60.51051924 222.75792503 52.10517406 C224.10864442 46.97490711 225.45856059 41.84443165 226.80664062 36.71347046 C228.08255126 31.85729365 229.36052708 27.00166509 230.64008522 22.14644814 C231.11368165 20.34790499 231.5865105 18.54915952 232.05853844 16.75020409 C232.70390425 14.29109942 233.35196916 11.83272188 234.00073242 9.37451172 C234.19017677 8.65002177 234.37962112 7.92553183 234.57480621 7.17908764 C235.88589456 2.22821088 235.88589456 2.22821088 237 0 C273.3 0 309.6 0 347 0 C347 116.82 347 233.64 347 354 C313.01 354 279.02 354 244 354 C244 318.36 244 282.72 244 246 C241.69 246.33 239.38 246.66 237 247 C228.09 282.31 219.18 317.62 210 354 C185.91 354 161.82 354 137 354 C133.62487113 343.8746134 133.62487113 343.8746134 132.72810364 340.29336548 C132.4190081 339.06967255 132.4190081 339.06967255 132.10366821 337.82125854 C131.78322037 336.53035812 131.78322037 336.53035812 131.45629883 335.21337891 C131.10451317 333.8141217 131.10451317 333.8141217 130.74562073 332.38659668 C129.97922837 329.33412394 129.21794709 326.28040462 128.45703125 323.2265625 C127.92343927 321.09421718 127.3896378 318.96192427 126.8556366 316.8296814 C125.74138804 312.37709561 124.62967876 307.92388568 123.51977539 303.47021484 C122.0954583 297.75578972 120.66476732 292.04298283 119.23219776 286.33062172 C118.13073934 281.9356093 117.03263346 277.53976466 115.9355526 273.14365768 C115.40909193 271.03581188 114.88157995 268.92822836 114.35300636 266.82091141 C113.61709617 263.88486448 112.88570081 260.94772953 112.15551758 258.01025391 C111.93581299 257.13750824 111.7161084 256.26476257 111.48974609 255.36557007 C111.29214188 254.56669373 111.09453766 253.76781738 110.89094543 252.94473267 C110.71785764 252.2512504 110.54476984 251.55776814 110.36643696 250.84327126 C110 249 110 249 110 246 C107.69 246 105.38 246 103 246 C103 281.64 103 317.28 103 354 C69.01 354 35.02 354 0 354 C0 237.18 0 120.36 0 0 Z " fill="#191E34" transform="translate(0,0)"/>
<path d="M0 0 C35.97 0 71.94 0 109 0 C110.92662683 5.13767154 112.58752172 9.81793108 113.95092773 15.06176758 C114.12446148 15.72424216 114.29799522 16.38671675 114.47678757 17.06926632 C115.04965828 19.26001566 115.61656748 21.45226264 116.18359375 23.64453125 C116.59538976 25.22303041 117.00761727 26.80141705 117.42024231 28.37969971 C118.30292227 31.75873529 119.18316352 35.13839237 120.06140137 38.51858521 C122.15989189 46.59479275 124.26963039 54.6680626 126.38015366 62.74113274 C126.86554444 64.59786092 127.35078552 66.45462824 127.83588028 68.31143379 C131.44705479 82.13090898 135.10448626 95.93743219 138.80078125 109.734375 C139.0327162 110.60063192 139.26465115 111.46688885 139.50361443 112.35939598 C141.73857028 120.70647456 143.9771767 129.05255017 146.22566509 137.39599419 C147.04906064 140.45447703 147.8692534 143.51381258 148.68869591 146.57335663 C149.06748614 147.98450698 149.44775038 149.39526266 149.8296299 150.80558014 C150.35139746 152.73274755 150.86771591 154.66138778 151.38378906 156.59008789 C151.673526 157.66561417 151.96326294 158.74114044 152.26177979 159.84925842 C153.0448859 163.19157411 153.51452437 166.60167059 154 170 C137.17 170 120.34 170 103 170 C103 123.47 103 76.94 103 29 C79.24 29 55.48 29 31 29 C31 136.25 31 243.5 31 354 C20.77 354 10.54 354 0 354 C0 237.18 0 120.36 0 0 Z " fill="#FDCB00" transform="translate(0,0)"/>
<path d="M0 0 C36.3 0 72.6 0 110 0 C110 116.82 110 233.64 110 354 C100.1 354 90.2 354 80 354 C80 246.75 80 139.5 80 29 C56.24 29 32.48 29 8 29 C8 75.53 8 122.06 8 170 C-9.49 170 -26.98 170 -45 170 C-36.2618155 135.97477878 -27.4450721 101.97145578 -18.5 68 C-18.07995469 66.40425654 -17.65991073 64.80851273 -17.23986816 63.21276855 C-14.68977657 53.52677451 -12.13320056 43.84250977 -9.57116699 34.15966797 C-8.98927706 31.95945495 -8.40813792 29.7590447 -7.82714844 27.55859375 C-6.88669288 23.99741515 -5.94391321 20.43685962 -4.99934387 16.87677002 C-4.48102542 14.92131143 -3.96479152 12.96530068 -3.4486084 11.00927734 C-3.14007935 9.8486377 -2.83155029 8.68799805 -2.51367188 7.4921875 C-2.24421753 6.47495605 -1.97476318 5.45772461 -1.69714355 4.40966797 C-1 2 -1 2 0 0 Z " fill="#FECB00" transform="translate(237,0)"/>
<path d="M0 0 C41.91 0 83.82 0 127 0 C118 36 109 72 100 108 C75.91 108 51.82 108 27 108 C23.62487113 97.8746134 23.62487113 97.8746134 22.72810364 94.29336548 C22.52203995 93.47757019 22.31597626 92.6617749 22.10366821 91.82125854 C21.89003632 90.96065826 21.67640442 90.10005798 21.45629883 89.21337891 C21.22177505 88.28054077 20.98725128 87.34770264 20.74562073 86.38659668 C19.97922837 83.33412394 19.21794709 80.28040462 18.45703125 77.2265625 C17.92343927 75.09421718 17.3896378 72.96192427 16.8556366 70.8296814 C15.74138804 66.37709561 14.62967876 61.92388568 13.51977539 57.47021484 C12.0954583 51.75578972 10.66476732 46.04298283 9.23219776 40.33062172 C8.13073934 35.9356093 7.03263346 31.53976466 5.9355526 27.14365768 C5.40909193 25.03581188 4.88157995 22.92822836 4.35300636 20.82091141 C3.61709617 17.88486448 2.88570081 14.94772953 2.15551758 12.01025391 C1.93581299 11.13750824 1.7161084 10.26476257 1.48974609 9.36557007 C1.29214188 8.56669373 1.09453766 7.76781738 0.89094543 6.94473267 C0.71785764 6.2512504 0.54476984 5.55776814 0.36643696 4.84327126 C0 3 0 3 0 0 Z " fill="#FFCC00" transform="translate(110,246)"/>
<path d="M0 0 C20.79 0 41.58 0 63 0 C63.99 2.64 64.98 5.28 66 8 C66.28875 7.4225 66.5775 6.845 66.875 6.25 C67.91666667 4.16666667 68.95833333 2.08333333 70 0 C90.79 0 111.58 0 133 0 C130 13 130 13 129 15 C87.42 15 45.84 15 3 15 C0 5 0 5 0 0 Z " fill="#8B741B" transform="translate(107,231)"/>
</svg>
