<svg version="1.1" xmlns="http://www.w3.org/2000/svg" style="display: block;" viewBox="0 0 2048 2048" width="512" height="512" preserveAspectRatio="none">
<path transform="translate(0,0)" fill="rgb(25,31,54)" d="M 1074.54 1153.18 C 1074.94 1141.31 1090.72 1089.9 1094.92 1074.63 L 1148.66 879.025 L 1232.16 574.831 L 1259.32 473.913 C 1266.03 448.554 1273.25 423.933 1280.02 398.725 L 1295.92 338.541 C 1297.47 332.509 1300.34 324.735 1302.24 318.721 C 1317.3 271.127 1341.61 164.378 1383.12 134.275 C 1446.32 88.4374 1562.09 93.4984 1637.44 92.7013 C 1707.58 91.2839 1762.32 92.8238 1828.7 116.065 C 1938.59 154.543 1939.81 252.079 1939.76 350.603 L 1939.69 488.422 L 1939.71 936.482 L 1939.7 1494.62 L 1939.76 1671.3 C 1939.8 1745.96 1946.12 1815.83 1904.39 1881.61 C 1896.81 1893.56 1883.3 1905.66 1873.04 1915.41 C 1842.9 1942.34 1787.62 1957.88 1747.56 1954.54 C 1719.34 1952.19 1676.06 1940.45 1654.63 1920.58 C 1572.51 1913.01 1579.92 1820.62 1579.91 1759.66 L 1579.92 1638.99 L 1579.92 1415.08 C 1579.92 1371.52 1579.32 1325.96 1580.42 1282.55 C 1560.4 1292.55 1543.52 1302.52 1522.21 1312.47 C 1472.16 1335.48 1420.27 1354.24 1367.09 1368.58 C 1362.25 1369.82 1357.39 1371 1352.62 1372.48 C 1351.44 1376.64 1349.49 1382.75 1348.74 1386.84 L 1345.73 1399.83 L 1278.18 1658.53 L 1260.3 1724.92 C 1258.02 1733.39 1256.14 1741.97 1253.92 1750.44 C 1251.96 1757.9 1246.84 1766.62 1245.32 1773.81 C 1232.51 1834.46 1194.51 1893.14 1140.86 1925.7 C 1091 1955.98 1014.04 1961.93 958.315 1945.95 C 829.645 1911.07 802.163 1786.15 772.549 1673.83 L 720.865 1479.03 C 714.665 1455.99 708.337 1422.34 701.445 1400.7 C 699.198 1396.51 695.431 1379.55 694.108 1373.98 L 693.207 1373.68 C 673.836 1367.46 651.691 1362.73 631.035 1356.13 C 573.831 1337.9 518.511 1314.22 465.839 1285.41 C 467.571 1321.44 466.396 1366.2 466.391 1402.78 L 466.347 1619 L 466.386 1755.24 C 466.43 1818.26 476.531 1915.47 389.928 1922.28 C 334.673 1958.62 271.85 1965.07 210.869 1938.64 C 170.121 1920.99 141.575 1889.61 125.6 1848.47 C 103.941 1792.69 108.144 1732.86 108.188 1674.16 L 108.211 1510.87 L 108.218 1007.04 L 108.221 522.378 L 108.185 366.127 C 108.181 336.728 107.114 306.89 108.758 277.557 C 110.329 249.515 117.411 208.816 129.656 183.255 C 138.475 164.844 160.705 140.576 178.367 130.695 C 189.308 124.574 212.168 116.266 224.34 112.258 C 254.501 102.326 290.864 96.2649 322.492 93.4241 C 347.387 91.1882 373.461 92.7774 398.488 92.7553 C 466.161 92.6956 577.93 89.7266 637.85 120.59 C 661.992 133.024 681.608 153.985 693.643 178.152 C 715.557 222.157 729.242 271.739 742.553 318.911 L 781.516 460.195 L 910.009 926.746 L 956.126 1095.06 C 961.376 1113.75 966.605 1135.8 972.306 1153.79 C 980.438 1155.07 1071.77 1154.57 1074.54 1153.18 z M 466.671 1027.29 C 507.969 1049.2 546.852 1067.34 590.829 1083.55 C 598.061 1086.22 616.187 1093.81 623.121 1094.46 C 616.019 1079.46 607.19 1042 602.924 1025.02 L 585.452 957.908 C 550.572 818.249 511.169 679.263 476.573 539.489 C 472.825 524.348 469.681 507.382 463.33 493.278 C 460.348 506.622 460.649 508.696 462.22 522.275 C 462.965 529.955 464.311 537.504 465.122 545.193 C 467.484 567.596 466.789 590.127 466.716 612.65 L 466.522 697.195 L 466.31 924.579 C 466.297 954.383 464.899 998.371 466.671 1027.29 z M 1424.49 1092.26 C 1448.68 1087.58 1562.63 1036.64 1579.94 1022.83 L 1579.89 711.971 L 1579.84 615.396 C 1579.86 585.411 1578.85 550.351 1585.02 521.072 C 1585.17 517.806 1584.47 513.373 1584.07 510.034 C 1584.98 506.927 1583.52 492.431 1583.19 488.225 C 1581.11 496.1 1578.9 503.943 1576.57 511.75 C 1574.82 524.339 1568.66 544.61 1565.31 557.8 L 1540.39 653.512 L 1474.97 902.087 C 1471.06 916.492 1468.56 930.827 1465.03 945.297 C 1456.87 979.631 1447.8 1013.74 1437.82 1047.59 C 1433.3 1063.37 1430.5 1076.87 1424.49 1092.26 z"/>
<path transform="translate(0,0)" fill="rgb(254,204,0)" fill-opacity="0.0313725" d="M 1583.19 488.225 C 1583.52 492.431 1584.98 506.927 1584.07 510.034 L 1583.77 509.88 C 1581.76 510.826 1578.84 511.259 1576.57 511.75 C 1578.9 503.943 1581.11 496.1 1583.19 488.225 z"/>
<path transform="translate(0,0)" fill="rgb(254,204,0)" d="M 1074.54 1153.18 C 1074.94 1141.31 1090.72 1089.9 1094.92 1074.63 L 1148.66 879.025 L 1232.16 574.831 L 1259.32 473.913 C 1266.03 448.554 1273.25 423.933 1280.02 398.725 L 1295.92 338.541 C 1297.47 332.509 1300.34 324.735 1302.24 318.721 C 1317.3 271.127 1341.61 164.378 1383.12 134.275 C 1446.32 88.4374 1562.09 93.4984 1637.44 92.7013 C 1707.58 91.2839 1762.32 92.8238 1828.7 116.065 C 1938.59 154.543 1939.81 252.079 1939.76 350.603 L 1939.69 488.422 L 1939.71 936.482 L 1939.7 1494.62 L 1939.76 1671.3 C 1939.8 1745.96 1946.12 1815.83 1904.39 1881.61 C 1896.81 1893.56 1883.3 1905.66 1873.04 1915.41 C 1842.9 1942.34 1787.62 1957.88 1747.56 1954.54 C 1719.34 1952.19 1676.06 1940.45 1654.63 1920.58 C 1662.49 1919.99 1672.61 1919.27 1680.14 1917.47 C 1738.57 1903.49 1789.36 1851.53 1820.71 1802.22 C 1858.92 1742.12 1881.01 1668.65 1889.39 1598.44 C 1895.5 1547.25 1894.84 1496.9 1894.82 1445.64 L 1894.82 1294.2 L 1894.83 768.562 L 1894.82 406.345 L 1894.81 308.416 C 1894.76 277.277 1896.28 242.832 1889.3 212.353 C 1887.23 203.307 1883.11 191.997 1874.64 187.115 C 1869.26 184.009 1863.2 184.914 1857.53 186.74 C 1814.76 200.514 1708.46 313.327 1677.62 350.356 C 1658.17 373.705 1639.02 398.693 1624.02 425.165 C 1612.98 444.661 1602.9 465.114 1595.73 486.387 C 1592.26 496.661 1590.59 510.434 1585.73 519.767 C 1585.5 520.206 1585.26 520.637 1585.02 521.072 C 1585.17 517.806 1584.47 513.373 1584.07 510.034 C 1584.98 506.927 1583.52 492.431 1583.19 488.225 C 1581.11 496.1 1578.9 503.943 1576.57 511.75 C 1574.82 524.339 1568.66 544.61 1565.31 557.8 L 1540.39 653.512 L 1474.97 902.087 C 1471.06 916.492 1468.56 930.827 1465.03 945.297 C 1456.87 979.631 1447.8 1013.74 1437.82 1047.59 C 1433.3 1063.37 1430.5 1076.87 1424.49 1092.26 C 1396.75 1100.95 1373.36 1108.91 1344.52 1116.29 C 1269.02 1134.99 1192 1146.9 1114.39 1151.87 C 1107.99 1152.28 1078.01 1154.54 1074.54 1153.18 z"/>
<path transform="translate(0,0)" fill="rgb(254,204,0)" d="M 389.928 1922.28 C 334.673 1958.62 271.85 1965.07 210.869 1938.64 C 170.121 1920.99 141.575 1889.61 125.6 1848.47 C 103.941 1792.69 108.144 1732.86 108.188 1674.16 L 108.211 1510.87 L 108.218 1007.04 L 108.221 522.378 L 108.185 366.127 C 108.181 336.728 107.114 306.89 108.758 277.557 C 110.329 249.515 117.411 208.816 129.656 183.255 C 138.475 164.844 160.705 140.576 178.367 130.695 C 189.308 124.574 212.168 116.266 224.34 112.258 C 254.501 102.326 290.864 96.2649 322.492 93.4241 C 347.387 91.1882 373.461 92.7774 398.488 92.7553 C 466.161 92.6956 577.93 89.7266 637.85 120.59 C 661.992 133.024 681.608 153.985 693.643 178.152 C 715.557 222.157 729.242 271.739 742.553 318.911 L 781.516 460.195 L 910.009 926.746 L 956.126 1095.06 C 961.376 1113.75 966.605 1135.8 972.306 1153.79 C 962.612 1154.26 939.558 1152.64 929.584 1152.11 C 845.012 1147.17 761.164 1133.62 679.338 1111.68 C 660.476 1106.52 641.41 1101.37 623.121 1094.46 C 616.019 1079.46 607.19 1042 602.924 1025.02 L 585.452 957.908 C 550.572 818.249 511.169 679.263 476.573 539.489 C 472.825 524.348 469.681 507.382 463.33 493.278 C 460.348 506.622 460.649 508.696 462.22 522.275 C 456.284 508.46 452.474 494.002 447.079 480.181 C 439.481 460.713 428.781 438.168 417.339 420.448 C 373.752 353.177 316.631 295.597 257.725 241.7 C 237.035 223.422 216.175 202.142 190.806 190.659 C 175.646 183.796 161.794 189.047 157.501 204.935 C 144.251 253.975 148.144 315.726 148.177 365.98 L 148.187 527.144 L 148.18 1023.4 L 148.153 1368.19 L 148.157 1473.91 C 148.168 1506.98 148.045 1538.79 150.699 1571.91 C 155.838 1636.06 169.1 1698.2 195.999 1757.04 C 225.489 1821.53 278.149 1887.4 345.618 1913.5 C 353.331 1916.49 360.433 1918.36 368.499 1919.83 C 373.312 1920.71 386.332 1920.83 389.928 1922.28 z"/>
<path transform="translate(0,0)" fill="rgb(254,204,0)" d="M 701.445 1400.7 C 706.461 1397.28 716.784 1403.6 725.242 1405.49 C 761.999 1413.7 801.657 1420.72 838.888 1425.66 C 965.999 1442.51 1094.84 1441.53 1221.68 1422.73 C 1250.58 1418.52 1279.33 1413.31 1307.86 1407.12 C 1314.55 1405.62 1340.03 1397.76 1343.71 1397.65 L 1345.73 1399.83 L 1278.18 1658.53 L 1260.3 1724.92 C 1258.02 1733.39 1256.14 1741.97 1253.92 1750.44 C 1251.96 1757.9 1246.84 1766.62 1245.32 1773.81 C 1232.51 1834.46 1194.51 1893.14 1140.86 1925.7 C 1091 1955.98 1014.04 1961.93 958.315 1945.95 C 829.645 1911.07 802.163 1786.15 772.549 1673.83 L 720.865 1479.03 C 714.665 1455.99 708.337 1422.34 701.445 1400.7 z"/>
<path transform="translate(0,0)" fill="rgb(207,165,1)" d="M 694.108 1373.98 C 699.091 1374.21 746.31 1385.17 754.618 1386.79 C 794.6 1394.79 834.952 1400.82 875.527 1404.85 C 994.816 1417.45 1115.23 1414.56 1233.78 1396.24 C 1257.58 1392.28 1281.3 1387.85 1304.93 1382.95 C 1319.89 1379.7 1337.86 1374.94 1352.62 1372.48 C 1351.44 1376.64 1349.49 1382.75 1348.74 1386.84 L 1345.73 1399.83 L 1343.71 1397.65 C 1340.03 1397.76 1314.55 1405.62 1307.86 1407.12 C 1279.33 1413.31 1250.58 1418.52 1221.68 1422.73 C 1094.84 1441.53 965.999 1442.51 838.888 1425.66 C 801.657 1420.72 761.999 1413.7 725.242 1405.49 C 716.784 1403.6 706.461 1397.28 701.445 1400.7 C 699.198 1396.51 695.431 1379.55 694.108 1373.98 z"/>
<path transform="translate(0,0)" fill="rgb(0,0,0)" fill-opacity="0.568627" d="M 615.091 1367 L 603.414 1363.27 C 568.522 1351.99 534.136 1335.7 500.914 1320.31 C 493.471 1316.86 481.597 1313.25 477.698 1305.64 L 478.432 1304.44 C 483.365 1305.38 486.584 1309.45 491.311 1311.66 C 533.015 1331.18 573.604 1349.64 617.781 1363.36 C 616.868 1365.62 617.04 1365.58 615.091 1367 z"/>
<path transform="translate(0,0)" fill="rgb(0,0,0)" fill-opacity="0.611765" d="M 1422.68 1363.12 C 1470.84 1348.29 1517.01 1327.42 1561.5 1304.36 C 1564.09 1303.02 1564.07 1303.39 1566.81 1301.49 L 1568.46 1301.87 C 1566.81 1313.68 1443.57 1360.79 1425.48 1366.74 L 1422.68 1363.12 z"/>
<path transform="translate(0,0)" fill="rgb(0,0,0)" fill-opacity="0.0117647" d="M 1367.09 1368.58 C 1368.82 1370.72 1368.69 1371.03 1371.25 1371.78 L 1371.59 1372.75 L 1368.03 1373.93 L 1368.87 1375.16 C 1373.18 1375.79 1377.3 1375.59 1381.59 1376.05 C 1377.45 1376.98 1371.27 1377.56 1369.15 1380.34 C 1371.01 1382.66 1370.3 1381.69 1373.63 1383.08 C 1367.7 1384 1368.27 1383.43 1364.05 1388.05 C 1360.5 1391.94 1357.47 1394.64 1352.42 1391.73 C 1351.36 1389.51 1351.05 1387.97 1348.74 1386.84 C 1349.49 1382.75 1351.44 1376.64 1352.62 1372.48 C 1357.39 1371 1362.25 1369.82 1367.09 1368.58 z"/>
<path transform="translate(0,0)" fill="rgb(0,0,0)" fill-opacity="0.172549" d="M 654.011 1374.41 C 663.049 1375.54 668.13 1377.26 677.812 1375.58 C 680.804 1375.06 683.369 1375.83 686.274 1376.64 C 686.78 1380.68 687.941 1386.02 686.659 1389.65 C 683.42 1390.59 664.637 1383.55 660.595 1381.86 C 663.89 1382.13 665.617 1382.08 668.844 1381.95 L 669.271 1381.04 C 664.861 1378.41 656.623 1376.78 654.011 1374.41 z"/>
<path transform="translate(0,0)" fill="rgb(0,0,0)" fill-opacity="0.541176" d="M 1381.59 1376.05 C 1386.11 1374.28 1389.54 1374.03 1393.96 1372.65 C 1403.54 1369.64 1413.17 1366.38 1422.68 1363.12 L 1425.48 1366.74 C 1413.69 1370.29 1383.83 1379.24 1373.63 1383.08 C 1370.3 1381.69 1371.01 1382.66 1369.15 1380.34 C 1371.27 1377.56 1377.45 1376.98 1381.59 1376.05 z"/>
<path transform="translate(0,0)" fill="rgb(0,0,0)" fill-opacity="0.47451" d="M 617.781 1363.36 C 629.697 1367.99 641.299 1372.7 654.011 1374.41 C 656.623 1376.78 664.861 1378.41 669.271 1381.04 L 668.844 1381.95 C 665.617 1382.08 663.89 1382.13 660.595 1381.86 C 656.205 1379.08 623.872 1370.67 615.091 1367 C 617.04 1365.58 616.868 1365.62 617.781 1363.36 z"/>
<path transform="translate(0,0)" fill="rgb(0,0,0)" fill-opacity="0.462745" d="M 1602.55 1906.27 C 1608.59 1913.34 1627.39 1931.76 1637.52 1927.35 L 1640.08 1924.16 C 1643.68 1924.2 1646.46 1927.11 1649.74 1929.56 C 1645.05 1930.41 1636.11 1932.74 1632.47 1933.1 C 1619.04 1927.95 1609.73 1919.91 1600.58 1909.27 L 1602.55 1906.27 z"/>
<path transform="translate(0,0)" fill="rgb(0,0,0)" fill-opacity="0.545098" d="M 409.284 1930.82 C 418.043 1926.65 426.539 1923.78 434.456 1917.8 C 438.026 1915.1 452.086 1897.66 454.406 1897.65 C 450.177 1909.92 431.83 1925.46 420.373 1931.06 C 415.014 1930.08 414.47 1929.78 409.284 1930.82 z"/>
<path transform="translate(0,0)" fill="rgb(0,0,0)" fill-opacity="0.388235" d="M 409.284 1930.82 C 414.47 1929.78 415.014 1930.08 420.373 1931.06 C 416.887 1932.03 411.778 1935.12 408.824 1935.49 C 397.191 1936.94 386.27 1939.33 374.85 1941.43 C 379.232 1938.17 386.072 1934.37 390.93 1931.5 C 397.898 1932.58 402.501 1932.98 409.284 1930.82 z"/>
<path transform="translate(0,0)" fill="rgb(0,0,0)" fill-opacity="0.360784" d="M 1649.74 1929.56 C 1653.38 1931.56 1657.24 1933.11 1659.42 1936.52 C 1656.14 1939.66 1636.84 1934.88 1632.47 1933.1 C 1636.11 1932.74 1645.05 1930.41 1649.74 1929.56 z"/>
<path transform="translate(0,0)" fill="rgb(0,0,0)" fill-opacity="0.156863" d="M 1600.58 1909.27 C 1597.46 1905.83 1591.61 1897.92 1590.72 1893.35 L 1591.83 1893.04 C 1596.44 1896.48 1599.25 1901.45 1602.55 1906.27 L 1600.58 1909.27 z"/>
</svg>